<?xml version="1.0" encoding="iso-8859-1"?>
<!-- Generator: Adobe Illustrator 26.0.1, SVG Export Plug-In . SVG Version: 6.00 Build 0)  -->
<svg version="1.1" id="Layer_1" xmlns="http://www.w3.org/2000/svg" xmlns:xlink="http://www.w3.org/1999/xlink" x="0px" y="0px"
	 viewBox="0 0 500 164.348" style="enable-background:new 0 0 500 164.348;" xml:space="preserve">
<g>
	<path style="fill:#01388C;" d="M11.268,72.395c15.213,26.912,30.425,53.824,45.638,80.737c0.525,0.929,1.52,1.494,2.587,1.469
		c7.686-0.182,15.372-0.364,23.058-0.546c1.014-0.024,1.941-0.577,2.444-1.458l79.742-139.645
		c-23.266,15.842-46.532,31.684-69.798,47.525c5.579-0.021,11.157-0.042,16.736-0.063c0.81-0.003,1.32,0.87,0.919,1.574
		c-13.9,24.421-27.8,48.843-41.7,73.264C58.871,114.3,46.849,93.348,34.826,72.395H11.268z"/>
	<path style="fill:#F9E00F;" d="M93.081,154.079c27.427-48.044,54.854-93.237,82.281-141.28c6.671,16.03,13.343,32.06,20.014,48.09
		c-7.061,0.011-14.122,0.021-21.183,0.032c-1.255,0.002-2.413,0.674-3.036,1.763c-17.613,30.756-35.226,58.661-52.838,89.416
		c-0.652,1.139-1.862,1.845-3.175,1.853L93.081,154.079z"/>
	<path style="fill:#F9E00F;" d="M48.259,72.476c7.295-0.127,14.591-0.255,21.886-0.382c0.397-0.007,0.767,0.203,0.963,0.548
		c3.901,6.834,7.801,13.669,11.702,20.503c0.194,0.34,0.19,0.758-0.009,1.094l-11.057,18.625c-0.426,0.718-1.468,0.708-1.88-0.018
		c-7.428-13.061-14.855-26.121-22.283-39.182C47.282,73.14,47.655,72.487,48.259,72.476z"/>
</g>
<path style="fill:#F9E00F;" d="M224.232,82.661c-0.035,0.301-0.15,0.592-0.344,0.875c-0.867,1.184-1.998,3.04-3.394,5.567
	l-7.875,14.37c-2.104,3.836-3.742,6.864-4.918,9.081c-1.176,2.219-2.09,4.009-2.744,5.37c-0.495,1.078-1.242,1.905-2.241,2.478
	c-0.999,0.574-2.073,0.863-3.221,0.863c-0.106,0-0.238,0-0.397,0h-1.007c-0.178,0-0.31,0-0.398,0c-1.149,0-2.099-0.288-2.85-0.863
	c-0.751-0.573-1.154-1.4-1.207-2.478c-0.053-1.361-0.199-3.15-0.437-5.37c-0.239-2.217-0.597-5.245-1.074-9.081l-1.777-14.37
	c-0.301-2.527-0.636-4.383-1.007-5.567c-0.071-0.283-0.071-0.566,0-0.849c0.106-0.583,0.415-1.096,0.928-1.538
	c0.512-0.441,1.453-0.675,2.824-0.702c1.369-0.026,2.311,0.102,2.824,0.385c0.265,0.142,0.504,0.327,0.716,0.557
	c0.637,0.653,0.946,1.475,0.928,2.466c-0.035,1.414,0.212,4.021,0.742,7.821l2.493,19.223l10.658-19.223
	c2.157-3.8,3.518-6.407,4.084-7.821c0.406-0.99,1.06-1.812,1.961-2.466c0.301-0.23,0.627-0.415,0.981-0.557
	c0.619-0.283,1.604-0.411,2.957-0.385c1.352,0.027,2.191,0.261,2.518,0.702c0.118,0.159,0.17,0.534,0.179,0.575
	C224.22,82.106,224.235,82.433,224.232,82.661z"/>
<path style="fill:#F9E00F;" d="M260.695,94.353c0,1.555-0.178,3.292-0.531,5.21c-0.354,1.918-0.902,3.88-1.644,5.886
	c-0.743,2.006-1.706,3.951-2.89,5.833c-1.184,1.883-2.603,3.571-4.255,5.065c-1.653,1.493-3.566,2.686-5.74,3.579
	c-2.174,0.892-4.631,1.339-7.37,1.339c-1.238,0-2.559-0.143-3.964-0.424c-1.406-0.283-2.776-0.765-4.11-1.445
	c-1.335-0.68-2.532-1.604-3.593-2.771c-1.237-1.432-2.108-3.053-2.611-4.865c-0.504-1.811-0.755-3.636-0.755-5.475
	c0-1.061,0.123-2.479,0.37-4.255c0.248-1.777,0.734-3.712,1.459-5.807c0.724-2.095,1.78-4.176,3.168-6.245
	c1.388-2.067,3.203-3.941,5.449-5.62c0.777-0.566,1.758-1.149,2.943-1.75c1.184-0.6,2.567-1.113,4.149-1.538
	c1.581-0.424,3.345-0.637,5.29-0.637c4.755,0,8.382,1.238,10.884,3.712C259.443,86.62,260.695,90.023,260.695,94.353z
	 M250.673,86.796c-0.672-0.547-1.476-0.958-2.413-1.233c-0.937-0.274-1.945-0.411-3.022-0.411c-2.104,0-3.96,0.456-5.568,1.366
	s-2.991,2.12-4.149,3.632s-2.104,3.186-2.837,5.024c-0.734,1.838-1.272,3.716-1.617,5.634c-0.344,1.919-0.517,3.708-0.517,5.37
	c0,0.795,0.097,1.882,0.291,3.261c0.195,1.379,0.574,2.598,1.14,3.659c0.813,1.308,1.852,2.236,3.115,2.784
	c1.264,0.547,2.515,0.822,3.752,0.822c2.121,0,3.986-0.495,5.594-1.486c1.609-0.989,2.974-2.288,4.096-3.897
	c1.123-1.607,2.037-3.375,2.745-5.302c0.706-1.927,1.219-3.858,1.538-5.793c0.318-1.936,0.478-3.69,0.478-5.264
	c0-0.83-0.058-1.754-0.173-2.771s-0.362-1.997-0.743-2.942C252.002,88.304,251.432,87.486,250.673,86.796z"/>
<path style="fill:#F9E00F;" d="M284.644,107.026l0.556,0.424c0,0.919-0.106,1.776-0.318,2.572c-0.212,1.343-0.705,2.674-1.484,3.99
	c-0.778,1.317-1.844,2.523-3.194,3.619c-1.353,1.097-3.001,1.976-4.946,2.639s-4.171,0.995-6.682,0.995
	c-0.283,0-0.557-0.009-0.822-0.027c-0.301,0.018-0.61,0.027-0.928,0.027c-1.696,0-3.349-0.204-4.958-0.61
	c-0.937-0.283-1.569-0.831-1.896-1.644c-0.328-0.814-0.358-1.662-0.093-2.546c0.335-0.866,0.905-1.422,1.71-1.67
	c0.803-0.248,1.501-0.287,2.094-0.12c0.592,0.169,1.074,0.358,1.445,0.57c0.282,0.159,0.592,0.301,0.927,0.424
	c1.15,0.248,2.218,0.37,3.209,0.37c2.386,0,4.415-0.565,6.085-1.696c1.671-1.132,2.62-2.696,2.851-4.693
	c-0.106-1.361-0.62-2.452-1.538-3.274c-0.92-0.822-1.919-1.498-2.997-2.029l-3.182-1.856c-1.679-0.883-3.142-1.926-4.387-3.129
	c-1.246-1.202-1.905-2.916-1.976-5.143c0-0.902,0.106-1.75,0.318-2.546c0.23-1.326,0.729-2.651,1.498-3.977
	c0.769-1.326,1.833-2.537,3.195-3.632c1.361-1.097,3.009-1.976,4.944-2.639s4.158-0.995,6.669-0.995
	c0.283,0,0.556,0.009,0.822,0.027c0.3-0.018,0.618-0.027,0.953-0.027c1.679,0,3.331,0.212,4.959,0.637
	c0.936,0.265,1.565,0.804,1.883,1.617c0.318,0.814,0.343,1.671,0.079,2.572c-0.318,0.849-0.884,1.401-1.696,1.657
	c-0.814,0.256-1.513,0.301-2.095,0.132c-0.583-0.168-1.07-0.366-1.459-0.596c-0.283-0.159-0.593-0.301-0.928-0.424
	c-1.132-0.229-2.199-0.344-3.209-0.344c-2.368,0-4.386,0.562-6.057,1.683c-1.671,1.123-2.63,2.682-2.877,4.68
	c0.123,1.361,0.645,2.452,1.564,3.274s1.91,1.508,2.969,2.055l3.209,1.83c1.661,0.883,3.119,1.926,4.374,3.129
	C284.492,103.536,284.962,105.101,284.644,107.026z"/>
<path style="fill:#F9E00F;" d="M326.09,94.353c0,1.555-0.177,3.292-0.53,5.21c-0.354,1.918-0.902,3.88-1.644,5.886
	c-0.743,2.006-1.706,3.951-2.89,5.833c-1.184,1.883-2.603,3.571-4.255,5.065c-1.653,1.493-3.567,2.686-5.74,3.579
	c-2.174,0.892-4.631,1.339-7.371,1.339c-1.237,0-2.558-0.143-3.963-0.424c-1.406-0.283-2.776-0.765-4.11-1.445
	c-1.335-0.68-2.532-1.604-3.593-2.771c-1.238-1.432-2.108-3.053-2.611-4.865c-0.505-1.811-0.756-3.636-0.756-5.475
	c0-1.061,0.124-2.479,0.371-4.255c0.248-1.777,0.734-3.712,1.459-5.807c0.724-2.095,1.78-4.176,3.168-6.245
	c1.387-2.067,3.203-3.941,5.449-5.62c0.777-0.566,1.758-1.149,2.942-1.75c1.184-0.6,2.568-1.113,4.15-1.538
	c1.581-0.424,3.344-0.637,5.289-0.637c4.755,0,8.383,1.238,10.884,3.712C324.84,86.62,326.09,90.023,326.09,94.353z M316.069,86.796
	c-0.672-0.547-1.476-0.958-2.413-1.233c-0.937-0.274-1.945-0.411-3.023-0.411c-2.103,0-3.959,0.456-5.567,1.366
	c-1.609,0.91-2.992,2.12-4.149,3.632c-1.158,1.512-2.104,3.186-2.837,5.024c-0.734,1.838-1.272,3.716-1.617,5.634
	c-0.345,1.919-0.517,3.708-0.517,5.37c0,0.795,0.097,1.882,0.291,3.261c0.195,1.379,0.574,2.598,1.14,3.659
	c0.813,1.308,1.851,2.236,3.115,2.784c1.264,0.547,2.515,0.822,3.752,0.822c2.121,0,3.986-0.495,5.594-1.486
	c1.608-0.989,2.974-2.288,4.096-3.897c1.123-1.607,2.037-3.375,2.745-5.302c0.706-1.927,1.219-3.858,1.538-5.793
	c0.318-1.936,0.477-3.69,0.477-5.264c0-0.83-0.057-1.754-0.172-2.771s-0.363-1.997-0.743-2.942
	C317.399,88.304,316.829,87.486,316.069,86.796z"/>
<g style="enable-background:new    ;">
	<path style="fill:#01388C;" d="M371.997,81.744h4.794c-1.172,1.918-4.563,7.174-10.174,15.768
		c-5.612,8.596-8.809,13.505-9.589,14.729c-0.782,1.226-1.351,2.113-1.705,2.664c-0.355,0.551-0.612,0.958-0.772,1.225
		c-0.159,0.267-0.408,0.613-0.745,1.039c-0.338,0.426-0.631,0.746-0.879,0.959c-0.676,0.532-1.386,0.799-2.131,0.799h-3.41
		c0.568-1.101,0.906-2.353,1.013-3.756c0.106-1.402,0.187-2.885,0.239-4.447c0.054-1.562,0.124-3.258,0.214-5.088
		c0.088-1.828,0.133-3.702,0.133-5.62c0-9.41-1.065-14.116-3.196-14.116c-0.746,0-1.51,0.622-2.291,1.864l-0.053,0.054
		c-0.143,0-0.213-0.106-0.213-0.32v-0.053c0.426-1.313,1.411-2.708,2.956-4.182s2.867-2.211,3.969-2.211
		c1.739,0,2.895,1.411,3.463,4.235c0.567,2.823,0.852,6.925,0.852,12.305c0,5.381-0.213,10.521-0.639,15.422
		c2.805-3.941,6.206-9.393,10.201-16.354C368.028,89.7,370.683,84.728,371.997,81.744z"/>
	<path style="fill:#01388C;" d="M388.511,98.151h2.184c-1.102,0.675-2.22,2.344-3.355,5.008c-0.925,2.237-1.705,4.271-2.345,6.099
		c-0.639,1.83-1.03,2.939-1.172,3.33s-0.471,1.341-0.985,2.85c-0.515,1.51-0.932,2.673-1.252,3.489
		c-0.888,2.485-1.917,4.456-3.09,5.913c-1.172,1.456-2.628,2.618-4.367,3.489c-1.741,0.869-3.499,1.305-5.274,1.305
		c-1.776,0-3.294-0.346-4.555-1.038c-1.26-0.693-1.891-1.785-1.891-3.276c0-0.782,0.239-1.483,0.719-2.104
		c0.479-0.622,1.03-0.932,1.651-0.932s1.146,0.141,1.571,0.426c0.427,0.284,0.728,0.604,0.906,0.959
		c-0.64,0.213-0.959,0.959-0.959,2.237c0,0.674,0.239,1.216,0.719,1.625c0.479,0.407,1.093,0.612,1.838,0.612
		c2.877,0,5.291-2.575,7.245-7.725l3.036-8.097c-1.67,2.096-3.116,3.667-4.342,4.715c-1.225,1.048-2.184,1.678-2.876,1.891
		s-1.51,0.319-2.45,0.319c-0.941,0-1.697-0.381-2.265-1.146c-0.568-0.763-0.844-1.882-0.825-3.355
		c0.018-1.474,0.443-3.577,1.278-6.312c0.834-2.734,1.758-4.901,2.77-6.499c1.013-1.598,2.06-2.628,3.144-3.09
		c1.083-0.461,2.565-0.692,4.448-0.692c0.141,0,0.213,0.071,0.213,0.213c0,0.143-0.106,0.32-0.32,0.533
		c-1.456,1.278-2.938,3.568-4.447,6.872c-1.51,3.303-2.265,6.091-2.265,8.363c0,1.207,0.338,1.811,1.013,1.811
		c1.278,0,2.911-1.278,4.9-3.835c1.988-2.558,3.516-5.114,4.581-7.671c0.142-0.354,0.347-0.87,0.613-1.545
		c0.266-0.675,0.452-1.137,0.559-1.385c0.107-0.248,0.275-0.595,0.507-1.039c0.23-0.443,0.435-0.746,0.612-0.905
		c0.178-0.16,0.417-0.364,0.719-0.613c0.302-0.248,0.613-0.407,0.933-0.479C386.663,98.258,387.622,98.151,388.511,98.151z"/>
	<path style="fill:#01388C;" d="M411.416,97.619l2.663,0.053h0.533c-1.172,0.959-2.61,3.383-4.315,7.271
		c-1.704,3.889-2.557,6.721-2.557,8.496c0,0.925,0.319,1.386,0.959,1.386c2.06,0,4.688-3.037,7.884-9.109
		c0.142-0.248,0.267-0.373,0.373-0.373c0.213,0,0.319,0.329,0.319,0.985c0,0.658-0.178,1.288-0.532,1.892
		c-4.368,7.351-8.026,11.026-10.974,11.026c-1.918,0-2.877-1.473-2.877-4.421c0-2.202,0.373-4.368,1.119-6.499
		c-4.049,7.174-7.796,10.761-11.24,10.761c-2.38,0-3.569-1.634-3.569-4.901c0-2.485,0.541-5.007,1.625-7.564
		c1.083-2.557,2.637-4.731,4.661-6.525c2.024-1.793,4.243-2.69,6.658-2.69c1.137,0,2.202,0.259,3.196,0.772
		c0.994,0.516,1.651,1.341,1.972,2.478c0.39-0.816,0.993-1.526,1.811-2.131C409.941,97.921,410.705,97.619,411.416,97.619z
		 M406.994,101.135c-0.355-1.137-1.189-1.705-2.503-1.705c-2.345,0-4.617,1.625-6.819,4.874c-2.202,3.25-3.303,6.153-3.303,8.71
		c0,1.102,0.427,1.651,1.278,1.651c0.924,0,2.007-0.577,3.25-1.731c1.242-1.153,2.361-2.512,3.356-4.075
		C404.455,105.379,406.035,102.805,406.994,101.135z"/>
	<path style="fill:#01388C;" d="M438.104,107.527c-2.131,3.906-4.439,6.943-6.925,9.108c-2.486,2.167-5.434,3.25-8.843,3.25
		s-5.327-0.871-5.753-2.61l-2.983,9.322c-0.71,2.095-1.252,3.453-1.625,4.075c-0.373,0.621-0.79,1.021-1.252,1.198
		c-0.461,0.178-1.047,0.267-1.758,0.267h-2.557c0.924-1.35,2.788-6.011,5.593-13.983c2.806-7.972,4.661-13.06,5.567-15.262
		c0.905-2.202,1.571-3.533,1.997-3.995c0.853-0.853,2.326-1.278,4.422-1.278h1.598c-1.03,0.71-2.433,2.841-4.208,6.392
		c3.303-4.402,6.214-6.605,8.736-6.605c2.379,0,3.569,1.634,3.569,4.901c0,2.699-0.853,5.469-2.558,8.31
		c-1.704,2.842-3.711,5.044-6.02,6.605h0.427c1.455,0,2.938-0.586,4.448-1.758c1.509-1.172,2.813-2.468,3.915-3.889
		c0.604-0.78,1.456-2.104,2.557-3.969c1.101-1.864,1.687-2.796,1.758-2.796c0.284,0,0.427,0.302,0.427,0.905
		C438.637,106.32,438.458,106.924,438.104,107.527z M427.716,101.934c-0.106-0.035-0.266-0.054-0.479-0.054
		c-0.745,0-1.562,0.355-2.45,1.065c-1.456,1.138-3.001,3.02-4.635,5.647s-2.45,4.776-2.45,6.445c0,1.67,0.515,2.504,1.545,2.504
		c1.846,0,3.853-1.829,6.02-5.487c2.166-3.657,3.249-6.517,3.249-8.576C428.515,102.591,428.249,102.076,427.716,101.934z"/>
	<path style="fill:#01388C;" d="M457.601,97.619l2.663,0.053h0.533c-1.172,0.959-2.61,3.383-4.315,7.271
		c-1.704,3.889-2.557,6.721-2.557,8.496c0,0.925,0.319,1.386,0.959,1.386c2.06,0,4.688-3.037,7.884-9.109
		c0.142-0.248,0.267-0.373,0.373-0.373c0.213,0,0.319,0.329,0.319,0.985c0,0.658-0.178,1.288-0.532,1.892
		c-4.368,7.351-8.026,11.026-10.974,11.026c-1.918,0-2.877-1.473-2.877-4.421c0-2.202,0.373-4.368,1.119-6.499
		c-4.049,7.174-7.796,10.761-11.24,10.761c-2.38,0-3.569-1.634-3.569-4.901c0-2.485,0.541-5.007,1.625-7.564
		c1.083-2.557,2.637-4.731,4.661-6.525c2.024-1.793,4.243-2.69,6.658-2.69c1.137,0,2.202,0.259,3.196,0.772
		c0.994,0.516,1.651,1.341,1.972,2.478c0.39-0.816,0.993-1.526,1.811-2.131C456.126,97.921,456.89,97.619,457.601,97.619z
		 M453.179,101.135c-0.355-1.137-1.189-1.705-2.503-1.705c-2.345,0-4.617,1.625-6.819,4.874c-2.202,3.25-3.303,6.153-3.303,8.71
		c0,1.102,0.427,1.651,1.278,1.651c0.924,0,2.007-0.577,3.25-1.731c1.242-1.153,2.361-2.512,3.356-4.075
		C450.64,105.379,452.22,102.805,453.179,101.135z"/>
	<path style="fill:#01388C;" d="M475.286,97.512l2.716,0.054h0.533c-0.533,0.392-1.288,1.545-2.264,3.463
		c-0.978,1.917-1.705,3.365-2.185,4.341c-0.479,0.978-1.012,2.291-1.598,3.942s-0.879,2.992-0.879,4.021
		c0,1.031,0.354,1.545,1.065,1.545c0.461-0.034,1.109-0.363,1.944-0.985c0.834-0.621,1.526-1.278,2.077-1.971
		c0.55-0.692,1.153-1.58,1.812-2.664c0.656-1.082,1.225-2.023,1.704-2.823c0.479-0.799,0.754-1.198,0.826-1.198
		c0.248,0,0.373,0.329,0.373,0.985c0,0.657-0.179,1.288-0.533,1.892c-1.527,2.521-2.788,4.457-3.782,5.806
		c-0.994,1.351-2.193,2.584-3.596,3.703c-1.403,1.118-2.673,1.678-3.809,1.678c-2.024,0-3.036-1.492-3.036-4.475
		c0-2.024,0.39-4.315,1.172-6.872c0.78-2.557,1.935-5.024,3.462-7.404c-1.243,0.994-2.486,1.491-3.729,1.491
		c-0.392,0-0.799-0.088-1.226-0.267c-2.521,4.973-3.88,7.458-4.075,7.458s-0.293-0.293-0.293-0.879s0.222-1.402,0.666-2.45
		c0.444-1.047,0.923-2.051,1.438-3.01c0.515-0.959,0.79-1.491,0.826-1.599c-1.279-0.639-1.918-1.668-1.918-3.089
		c0-0.71,0.222-1.35,0.666-1.918c0.443-0.567,1.056-0.853,1.838-0.853c0.78,0,1.42,0.249,1.917,0.746
		c-0.071,0.213-0.106,0.532-0.106,0.959c0,0.959,0.347,1.714,1.039,2.264c0.692,0.551,1.535,0.825,2.53,0.825
		c0.284,0,0.497-0.017,0.64-0.053C472.746,98.4,474.007,97.512,475.286,97.512z"/>
</g>
<g>
	<g style="enable-background:new    ;">
		<path style="fill:#01388C;" d="M275.117,135.772h1.228c-0.522,0.5-1.055,1.866-1.594,4.1c-0.54,2.233-0.81,3.958-0.81,5.174
			c0,0.863,0.159,1.46,0.478,1.79c0.136,0.147,0.307,0.222,0.511,0.222c0.205,0,0.421-0.074,0.647-0.222l0.103,0.153
			c-0.159,0.228-0.443,0.423-0.853,0.588c-0.408,0.165-0.812,0.247-1.21,0.247c-0.591,0-0.994-0.21-1.21-0.631
			c-0.216-0.42-0.341-0.982-0.375-1.688c0-0.579,0.073-1.329,0.222-2.25h-3.904c-1.693,1.796-3.022,3.268-3.988,4.415h-1.705
			c1.068-0.978,2.728-2.58,4.978-4.807c2.898-2.887,4.802-4.887,5.711-6.001c0.227-0.272,0.397-0.463,0.511-0.571
			c0.114-0.107,0.287-0.221,0.521-0.341C274.608,135.832,274.855,135.772,275.117,135.772z M270.43,135.772h3.818
			c-0.284,0.284-0.778,0.5-1.483,0.647c-0.704,0.148-1.5,0.265-2.386,0.35c-0.887,0.085-1.467,0.156-1.739,0.213
			c-1.216,0.284-1.824,1.012-1.824,2.183c-0.352-0.364-0.528-0.756-0.528-1.177C266.287,136.512,267.668,135.772,270.43,135.772z
			 M273.361,138.176c-1.295,1.217-2.716,2.625-4.262,4.228h3.273C272.577,141.278,272.907,139.869,273.361,138.176z"/>
		<path style="fill:#01388C;" d="M284.101,143.307c0.068,0,0.103,0.105,0.103,0.315c0,0.211-0.034,0.373-0.103,0.486l-0.375,0.631
			c-0.557,0.92-1.012,1.534-1.363,1.841c-0.387,0.353-0.762,0.528-1.125,0.528c-0.478,0-0.796-0.222-0.955-0.665
			c-0.466,0.467-0.938,0.815-1.415,1.049c-0.477,0.232-1.012,0.35-1.603,0.35s-1.008-0.094-1.253-0.281
			c-0.244-0.188-0.366-0.5-0.366-0.938c0-0.437,0.068-0.935,0.205-1.491c0.352-1.5,0.942-3.265,1.772-5.293
			c0.829-2.028,1.483-3.104,1.96-3.23c0.148-0.034,0.418-0.054,0.811-0.06c0.392-0.005,0.627-0.014,0.707-0.025
			c-0.443,0.33-1.043,1.296-1.799,2.898c-0.756,1.602-1.326,3.142-1.713,4.619c1.228-2.171,2.387-3.256,3.478-3.256
			c0.772,0,1.159,0.554,1.159,1.662c0,1.107-0.466,2.236-1.397,3.384c0.011,0.193,0.067,0.347,0.17,0.46
			c0.103,0.114,0.233,0.171,0.393,0.171s0.332-0.071,0.52-0.214c0.188-0.142,0.329-0.267,0.426-0.375
			c0.097-0.107,0.225-0.264,0.384-0.469c0.159-0.204,0.347-0.479,0.562-0.826s0.4-0.645,0.555-0.896
			C283.99,143.433,284.078,143.307,284.101,143.307z M280.316,142.233c-0.034-0.012-0.122-0.018-0.265-0.018
			c-0.142,0-0.409,0.148-0.801,0.443c-0.392,0.296-0.85,0.861-1.372,1.696c-0.523,0.835-0.784,1.522-0.784,2.062
			s0.164,0.81,0.494,0.81c0.603,0,1.25-0.582,1.943-1.747s1.04-2.082,1.04-2.753C280.572,142.443,280.487,142.278,280.316,142.233z"
			/>
		<path style="fill:#01388C;" d="M298.368,138.329c-0.125,1.217-0.887,2.126-2.284,2.728c-0.33,0.137-0.665,0.239-1.006,0.307
			c1.772,0.33,2.659,1.171,2.659,2.523c0,1.147-0.611,2.113-1.832,2.897c-1.222,0.784-2.736,1.177-4.543,1.177
			c-0.887,0-1.626-0.14-2.216-0.418c-0.592-0.278-0.887-0.741-0.887-1.39c0-0.795,0.42-2.182,1.262-4.159
			c0.841-1.978,1.619-3.665,2.335-5.062c0.113-0.228,0.198-0.386,0.256-0.478l-0.614,0.086c-0.886,0.125-1.701,0.335-2.446,0.63
			c-0.744,0.296-1.246,0.665-1.508,1.108c-0.012,0.034-0.04,0.051-0.086,0.051c-0.045,0-0.067-0.031-0.067-0.094
			c0-0.062,0.006-0.104,0.017-0.128c0.432-1.182,1.222-1.903,2.369-2.164c0.522-0.114,1.222-0.171,2.097-0.171h3.358
			c1.034,0,1.815,0.222,2.344,0.665s0.793,1,0.793,1.67V138.329z M296.596,137.887c-0.103-1-0.893-1.534-2.37-1.603
			c-0.534,0.693-1.238,1.994-2.113,3.903s-1.433,3.287-1.671,4.134s-0.357,1.489-0.357,1.926c0,0.438,0.124,0.723,0.375,0.853
			c0.249,0.131,0.664,0.196,1.244,0.196c1.079,0,2.022-0.292,2.829-0.878c0.808-0.585,1.211-1.457,1.211-2.616
			c0-0.568-0.14-1.058-0.418-1.467s-0.685-0.647-1.219-0.716c-0.705,0.193-1.387,0.29-2.046,0.29c-0.193,0-0.289-0.04-0.289-0.119
			c0-0.262,0.176-0.44,0.528-0.537c0.352-0.097,0.688-0.145,1.006-0.145c0.317,0,0.631,0.022,0.938,0.067
			c0.738-0.227,1.315-0.636,1.729-1.227c0.415-0.591,0.623-1.205,0.623-1.842V137.887z"/>
		<path style="fill:#01388C;" d="M306.482,144.244c-1.398,2.353-2.58,3.529-3.546,3.529c-0.671,0-1.006-0.387-1.006-1.159
			c0-0.897,0.358-2.177,1.074-3.836c0.158-0.42,0.238-0.71,0.238-0.869c0-0.228-0.103-0.341-0.307-0.341
			c-0.137,0-0.366,0.079-0.69,0.238s-0.634,0.393-0.929,0.699c-0.296,0.307-0.543,0.662-0.742,1.065s-0.357,0.753-0.478,1.048
			c-0.119,0.296-0.241,0.657-0.366,1.083s-0.235,0.772-0.332,1.04c-0.097,0.267-0.196,0.576-0.299,0.929h-1.653
			c0.307-0.784,0.747-2.037,1.321-3.759c0.573-1.722,1.065-3.074,1.475-4.057c0.409-0.983,0.81-1.812,1.201-2.489
			c0.393-0.676,0.842-1.241,1.347-1.696c0.506-0.454,1.04-0.682,1.603-0.682s0.844,0.268,0.844,0.802
			c0,0.375-0.153,0.869-0.46,1.482c-0.659,1.296-1.762,2.796-3.307,4.5c0.613-0.442,1.1-0.732,1.457-0.869
			c0.358-0.136,0.701-0.204,1.031-0.204c0.647,0,0.972,0.284,0.972,0.852c0,0.228-0.04,0.438-0.119,0.631
			c-0.08,0.193-0.168,0.415-0.265,0.665s-0.176,0.455-0.238,0.613c-0.062,0.16-0.145,0.376-0.247,0.648s-0.182,0.506-0.238,0.698
			c-0.148,0.478-0.222,0.858-0.222,1.143s0.096,0.426,0.289,0.426c0.683,0,1.534-0.988,2.558-2.966
			c0.034-0.079,0.076-0.119,0.128-0.119c0.051,0,0.076,0.105,0.076,0.315S306.596,144.029,306.482,144.244z M304.419,135.414
			c-0.397,0-0.917,0.631-1.56,1.893c-0.642,1.262-1.27,2.71-1.884,4.347c1.558-1.829,2.62-3.329,3.188-4.5
			c0.317-0.716,0.477-1.185,0.477-1.406S304.567,135.414,304.419,135.414z"/>
		<path style="fill:#01388C;" d="M312.84,140.853l0.853,0.017h0.171c-0.375,0.307-0.836,1.083-1.381,2.327
			c-0.546,1.244-0.818,2.15-0.818,2.719c0,0.296,0.103,0.443,0.307,0.443c0.659,0,1.5-0.972,2.523-2.915
			c0.045-0.079,0.085-0.119,0.119-0.119c0.068,0,0.103,0.105,0.103,0.315s-0.058,0.412-0.171,0.604
			c-1.397,2.353-2.568,3.529-3.512,3.529c-0.613,0-0.92-0.472-0.92-1.415c0-0.704,0.119-1.397,0.357-2.08
			c-1.295,2.296-2.494,3.443-3.597,3.443c-0.762,0-1.142-0.522-1.142-1.568c0-0.795,0.173-1.602,0.52-2.42s0.844-1.515,1.491-2.089
			c0.648-0.573,1.358-0.86,2.131-0.86c0.363,0,0.705,0.083,1.023,0.247c0.317,0.165,0.528,0.429,0.63,0.793
			c0.125-0.262,0.318-0.488,0.58-0.682C312.368,140.949,312.613,140.853,312.84,140.853z M311.426,141.978
			c-0.114-0.363-0.381-0.546-0.802-0.546c-0.75,0-1.478,0.521-2.182,1.56c-0.705,1.04-1.057,1.97-1.057,2.787
			c0,0.353,0.136,0.529,0.409,0.529c0.295,0,0.642-0.185,1.039-0.555c0.398-0.369,0.756-0.804,1.074-1.304
			C310.613,143.336,311.118,142.512,311.426,141.978z"/>
		<path style="fill:#01388C;" d="M318.5,140.818l0.869,0.017h0.171c-0.171,0.126-0.412,0.495-0.725,1.108
			c-0.313,0.613-0.546,1.077-0.699,1.39s-0.324,0.732-0.512,1.261s-0.281,0.958-0.281,1.287c0,0.33,0.113,0.494,0.341,0.494
			c0.148-0.011,0.355-0.116,0.623-0.315c0.267-0.198,0.488-0.408,0.664-0.63c0.177-0.222,0.369-0.506,0.58-0.853
			c0.21-0.347,0.392-0.647,0.545-0.903s0.241-0.384,0.265-0.384c0.079,0,0.119,0.105,0.119,0.315s-0.057,0.412-0.17,0.605
			c-0.489,0.807-0.893,1.426-1.211,1.857c-0.318,0.433-0.701,0.827-1.15,1.185c-0.449,0.358-0.855,0.537-1.219,0.537
			c-0.647,0-0.972-0.478-0.972-1.432c0-0.647,0.125-1.381,0.375-2.199s0.619-1.607,1.108-2.369
			c-0.398,0.318-0.796,0.478-1.193,0.478c-0.126,0-0.256-0.028-0.393-0.086c-0.807,1.592-1.241,2.387-1.304,2.387
			s-0.094-0.094-0.094-0.281s0.07-0.448,0.213-0.784c0.142-0.335,0.296-0.656,0.46-0.963c0.165-0.307,0.253-0.478,0.265-0.512
			c-0.409-0.204-0.613-0.534-0.613-0.988c0-0.228,0.07-0.432,0.213-0.614c0.142-0.182,0.338-0.272,0.588-0.272
			s0.454,0.08,0.613,0.238c-0.022,0.068-0.034,0.171-0.034,0.308c0,0.307,0.111,0.548,0.333,0.725
			c0.222,0.176,0.491,0.264,0.81,0.264c0.091,0,0.159-0.006,0.204-0.017C317.688,141.103,318.091,140.818,318.5,140.818z"/>
		<path style="fill:#01388C;" d="M326.631,140.853l0.853,0.017h0.17c-0.375,0.307-0.835,1.083-1.381,2.327
			c-0.545,1.244-0.817,2.15-0.817,2.719c0,0.296,0.102,0.443,0.307,0.443c0.658,0,1.5-0.972,2.522-2.915
			c0.046-0.079,0.085-0.119,0.119-0.119c0.068,0,0.103,0.105,0.103,0.315s-0.057,0.412-0.17,0.604
			c-1.398,2.353-2.569,3.529-3.512,3.529c-0.614,0-0.921-0.472-0.921-1.415c0-0.704,0.119-1.397,0.358-2.08
			c-1.296,2.296-2.495,3.443-3.597,3.443c-0.762,0-1.143-0.522-1.143-1.568c0-0.795,0.173-1.602,0.52-2.42s0.844-1.515,1.492-2.089
			c0.647-0.573,1.357-0.86,2.131-0.86c0.363,0,0.704,0.083,1.022,0.247c0.318,0.165,0.528,0.429,0.631,0.793
			c0.125-0.262,0.318-0.488,0.579-0.682C326.159,140.949,326.403,140.853,326.631,140.853z M325.216,141.978
			c-0.113-0.363-0.381-0.546-0.801-0.546c-0.75,0-1.478,0.521-2.183,1.56c-0.704,1.04-1.057,1.97-1.057,2.787
			c0,0.353,0.137,0.529,0.409,0.529c0.296,0,0.642-0.185,1.04-0.555c0.397-0.369,0.756-0.804,1.074-1.304
			C324.403,143.336,324.909,142.512,325.216,141.978z"/>
		<path style="fill:#01388C;" d="M333.006,137.903c-0.557,0.387-1.183,1.375-1.875,2.966h1.722l0.017,0.018
			c0,0.057-0.062,0.156-0.188,0.298c-0.125,0.143-0.232,0.213-0.323,0.213h-1.467c-0.897,2.228-1.347,3.66-1.347,4.296
			c0,0.433,0.137,0.647,0.409,0.647c0.398,0,0.864-0.341,1.398-1.022c0.125-0.147,0.289-0.397,0.494-0.75
			c0.522-0.841,0.795-1.262,0.818-1.262c0.068,0,0.102,0.092,0.102,0.273c-0.011,0.432-0.482,1.272-1.414,2.522
			c-0.308,0.409-0.677,0.79-1.108,1.143c-0.432,0.352-0.824,0.528-1.176,0.528c-0.648,0-0.972-0.455-0.972-1.364
			c0-0.761,0.182-1.636,0.545-2.625v-0.017c-0.216,0.397-0.4,0.693-0.554,0.886c-0.153,0.193-0.241,0.29-0.265,0.29
			c-0.045,0-0.067-0.07-0.067-0.213c0-0.142,0.076-0.372,0.229-0.69s0.364-0.733,0.631-1.244c0.267-0.512,0.486-0.978,0.656-1.398
			h-1.142c-0.034,0-0.052-0.025-0.052-0.076c0-0.052,0.043-0.14,0.128-0.265s0.15-0.188,0.196-0.188h1.295
			c0.818-1.966,1.648-2.949,2.489-2.949C332.676,137.92,332.948,137.915,333.006,137.903z"/>
		<path style="fill:#01388C;" d="M349.983,135.772h1.092c-0.568,0.443-1.279,1.58-2.131,3.409c-1.534,3.262-2.302,5.552-2.302,6.87
			c0,0.67,0.21,1.006,0.631,1.006c0.182,0,0.403-0.074,0.665-0.222h0.017c0.034,0,0.052,0.034,0.052,0.102
			c0,0.217-0.287,0.418-0.861,0.605s-1.037,0.281-1.389,0.281c-0.693,0-1.04-0.369-1.04-1.108c0-0.965,0.46-2.591,1.381-4.875
			h-4.824c-0.375,0.875-0.75,1.867-1.125,2.975c-0.375,1.108-0.562,1.935-0.562,2.48c0,0.171,0.022,0.296,0.067,0.375h-2.198
			c0.317-1.375,0.988-3.284,2.011-5.728c1.364-3.25,2.245-5.097,2.643-5.54c-0.966,0.022-1.946,0.219-2.94,0.588
			s-1.571,0.81-1.73,1.321c-0.012,0.034-0.034,0.051-0.068,0.051c-0.102,0-0.153-0.073-0.153-0.222c0-0.022,0.012-0.079,0.034-0.17
			c0.216-0.625,0.528-1.108,0.938-1.449s0.81-0.551,1.202-0.631c0.392-0.079,0.878-0.119,1.457-0.119h3.853
			c-0.772,0.591-1.801,2.335-3.085,5.233h4.824c1.067-2.5,1.823-4.074,2.267-4.722c0.08-0.125,0.228-0.241,0.443-0.35
			S349.643,135.772,349.983,135.772z"/>
		<path style="fill:#01388C;" d="M356.87,143.478c0.034-0.068,0.068-0.103,0.103-0.103c0.068,0,0.103,0.085,0.103,0.256
			c0,0.546-0.219,0.997-0.656,1.355c-0.438,0.357-0.847,0.537-1.228,0.537s-0.708-0.108-0.98-0.324
			c-0.409,0.807-0.895,1.443-1.457,1.909s-1.287,0.699-2.174,0.699c-0.568,0-1.031-0.174-1.389-0.521
			c-0.358-0.347-0.537-0.875-0.537-1.585s0.162-1.443,0.485-2.199c0.324-0.756,0.812-1.406,1.466-1.952
			c0.653-0.545,1.384-0.817,2.19-0.817c1.353,0,2.029,0.716,2.029,2.147c0,0.546-0.12,1.119-0.358,1.722
			c0.171,0.238,0.415,0.358,0.733,0.358C355.791,144.961,356.348,144.466,356.87,143.478z M354.023,142.421
			c-0.045-0.603-0.318-0.903-0.818-0.903c-0.784,0-1.551,0.761-2.301,2.284c-0.409,0.841-0.614,1.602-0.614,2.284
			c0,0.682,0.296,1.039,0.887,1.073c0.488,0,0.94-0.258,1.355-0.775c0.414-0.517,0.764-1.088,1.048-1.713
			c-0.386-0.33-0.579-0.744-0.579-1.244c0-0.308,0.082-0.552,0.247-0.733s0.389-0.272,0.673-0.272H354.023z"/>
		<path style="fill:#01388C;" d="M363.757,140.853h0.682c-0.238,0.159-0.5,0.506-0.783,1.04c-0.284,0.534-0.526,1.06-0.725,1.576
			c-0.199,0.518-0.458,1.225-0.776,2.122c-0.704,2.023-1.318,3.367-1.841,4.032c-0.522,0.664-1.11,1.176-1.764,1.534
			c-0.654,0.357-1.248,0.537-1.782,0.537c-1.136,0-1.704-0.358-1.704-1.074c0-0.284,0.088-0.552,0.265-0.802
			c0.176-0.25,0.411-0.375,0.707-0.375c0.295,0,0.494,0.12,0.597,0.358c-0.114,0.068-0.202,0.188-0.265,0.358
			c-0.062,0.17-0.094,0.332-0.094,0.485s0.06,0.281,0.18,0.384c0.119,0.102,0.275,0.153,0.469,0.153
			c0.545,0,1.039-0.275,1.482-0.827c0.443-0.551,0.818-1.19,1.125-1.918c0.08-0.193,0.625-1.692,1.637-4.5
			c-1.341,2.523-2.603,3.784-3.784,3.784c-0.773,0-1.159-0.522-1.159-1.568c0-0.795,0.173-1.602,0.52-2.42s0.844-1.515,1.492-2.089
			c0.647-0.573,1.357-0.86,2.131-0.86c0.352,0,0.69,0.08,1.014,0.238c0.324,0.159,0.531,0.421,0.622,0.784
			c0.171-0.363,0.372-0.613,0.605-0.75C362.839,140.921,363.223,140.853,363.757,140.853z M361.934,141.96
			c-0.114-0.363-0.382-0.545-0.802-0.545c-0.75,0-1.48,0.525-2.19,1.576c-0.71,1.052-1.065,1.986-1.065,2.805
			c0,0.341,0.137,0.512,0.409,0.512c0.296,0,0.642-0.185,1.04-0.555c0.397-0.369,0.756-0.804,1.074-1.304
			C361.422,142.87,361.934,142.04,361.934,141.96z"/>
		<path style="fill:#01388C;" d="M370.729,140.853l0.853,0.017h0.17c-0.375,0.307-0.835,1.083-1.381,2.327
			c-0.545,1.244-0.817,2.15-0.817,2.719c0,0.296,0.102,0.443,0.307,0.443c0.658,0,1.5-0.972,2.522-2.915
			c0.046-0.079,0.085-0.119,0.119-0.119c0.068,0,0.103,0.105,0.103,0.315s-0.057,0.412-0.17,0.604
			c-1.398,2.353-2.569,3.529-3.512,3.529c-0.614,0-0.921-0.472-0.921-1.415c0-0.704,0.119-1.397,0.358-2.08
			c-1.296,2.296-2.495,3.443-3.597,3.443c-0.762,0-1.143-0.522-1.143-1.568c0-0.795,0.173-1.602,0.52-2.42s0.844-1.515,1.492-2.089
			c0.647-0.573,1.357-0.86,2.131-0.86c0.363,0,0.704,0.083,1.022,0.247c0.318,0.165,0.528,0.429,0.631,0.793
			c0.125-0.262,0.318-0.488,0.579-0.682C370.257,140.949,370.501,140.853,370.729,140.853z M369.313,141.978
			c-0.113-0.363-0.381-0.546-0.801-0.546c-0.75,0-1.478,0.521-2.183,1.56c-0.704,1.04-1.057,1.97-1.057,2.787
			c0,0.353,0.137,0.529,0.409,0.529c0.296,0,0.642-0.185,1.04-0.555c0.397-0.369,0.756-0.804,1.074-1.304
			C368.501,143.336,369.007,142.512,369.313,141.978z"/>
		<path style="fill:#01388C;" d="M389.582,142.506c-0.75,1.705-1.821,3.083-3.214,4.134c-1.392,1.051-2.975,1.577-4.747,1.577
			c-2.818,0-4.228-1.245-4.228-3.733c0-1.125,0.235-2.23,0.707-3.315s1.094-2.034,1.867-2.847c0.772-0.812,1.688-1.469,2.744-1.969
			s2.137-0.751,3.239-0.751c1.442,0,2.525,0.355,3.247,1.065c0.722,0.711,1.082,1.598,1.082,2.66S390.048,141.449,389.582,142.506z
			 M388.866,139.165c0-1.853-0.83-2.779-2.489-2.779c-1.205,0-2.355,0.415-3.452,1.245c-1.097,0.829-1.96,1.869-2.591,3.119
			s-0.946,2.5-0.946,3.75c0,0.898,0.199,1.626,0.597,2.183s1.031,0.835,1.9,0.835c0.87,0,1.742-0.262,2.617-0.784
			s1.625-1.19,2.25-2.003s1.134-1.716,1.525-2.711C388.67,141.025,388.866,140.074,388.866,139.165z"/>
		<path style="fill:#01388C;" d="M397.985,144.244c-0.421,0.705-0.804,1.293-1.15,1.765s-0.741,0.884-1.185,1.236
			c-0.443,0.352-0.847,0.528-1.211,0.528c-0.67,0-1.005-0.369-1.005-1.108c0-0.738,0.426-2.222,1.278-4.449
			c0.045-0.102,0.068-0.21,0.068-0.323c0-0.239-0.151-0.358-0.452-0.358c-0.302,0-0.597,0.094-0.887,0.281
			c-0.289,0.188-0.554,0.455-0.792,0.801c-0.239,0.348-0.455,0.699-0.648,1.058c-0.193,0.357-0.372,0.77-0.537,1.235
			c-0.164,0.467-0.295,0.855-0.392,1.168s-0.193,0.647-0.29,1.006c-0.097,0.357-0.15,0.554-0.162,0.588h-1.653
			c0-0.238,0.5-1.608,1.5-4.108c0.409-1.17,0.614-1.988,0.614-2.454c0-0.114-0.018-0.199-0.052-0.256h0.716
			c0.398,0,0.653,0.04,0.768,0.119c0.113,0.08,0.17,0.188,0.17,0.324c0,0.136-0.062,0.415-0.188,0.835
			c0.955-0.909,1.915-1.363,2.881-1.363c0.648,0,0.972,0.295,0.972,0.886c0,0.193-0.028,0.387-0.085,0.58s-0.199,0.579-0.426,1.159
			c-0.5,1.272-0.75,2.125-0.75,2.557c0,0.272,0.102,0.409,0.307,0.409c0.147,0,0.354-0.103,0.622-0.307
			c0.267-0.205,0.488-0.418,0.665-0.64c0.176-0.222,0.369-0.5,0.579-0.835s0.39-0.628,0.537-0.878s0.233-0.375,0.256-0.375
			c0.068,0,0.103,0.105,0.103,0.315S398.099,144.052,397.985,144.244z"/>
		<path style="fill:#01388C;" d="M403.832,137.272c-0.409,0.83-1.034,1.771-1.875,2.821c-0.842,1.052-1.597,1.896-2.268,2.531
			l-0.272,0.784c-0.137,0.398-0.268,0.881-0.393,1.449s-0.182,0.972-0.17,1.21c0,0.341,0.125,0.512,0.375,0.512
			s0.548-0.143,0.895-0.427c0.347-0.283,0.6-0.53,0.759-0.741c0.159-0.21,0.344-0.485,0.554-0.826
			c0.21-0.342,0.393-0.637,0.546-0.887s0.241-0.375,0.264-0.375c0.068,0,0.103,0.105,0.103,0.315s-0.057,0.412-0.17,0.604
			c-0.626,1.058-1.131,1.802-1.518,2.233c-0.784,0.864-1.591,1.296-2.421,1.296c-0.636,0-0.954-0.432-0.954-1.296
			c0-0.853,0.381-2.341,1.142-4.466c0.057-0.182,0.188-0.562,0.393-1.143c0.204-0.579,0.381-1.031,0.528-1.354
			c0.147-0.324,0.347-0.753,0.597-1.287s0.491-0.961,0.725-1.279c0.232-0.317,0.491-0.642,0.775-0.971
			c0.557-0.659,1.159-0.989,1.807-0.989c0.648,0,0.972,0.296,0.972,0.887C404.224,136.329,404.093,136.795,403.832,137.272z
			 M403.474,135.414h-0.119c-0.693,0-1.802,2.08-3.324,6.239c1.557-1.829,2.619-3.329,3.188-4.5
			c0.318-0.716,0.478-1.185,0.478-1.406S403.621,135.414,403.474,135.414z"/>
		<path style="fill:#01388C;" d="M404.121,140.853l0.853,0.017h0.171c-0.182,0.137-0.424,0.506-0.725,1.108
			c-0.302,0.603-0.525,1.057-0.674,1.363c-0.147,0.307-0.314,0.722-0.502,1.245c-0.188,0.522-0.281,0.948-0.281,1.278
			c0,0.329,0.107,0.494,0.323,0.494c0.147,0,0.355-0.1,0.622-0.299c0.268-0.198,0.486-0.408,0.656-0.63
			c0.171-0.222,0.361-0.503,0.571-0.844c0.21-0.342,0.393-0.637,0.546-0.887s0.241-0.375,0.264-0.375
			c0.068,0,0.103,0.105,0.103,0.315s-0.057,0.412-0.171,0.604c-0.42,0.705-0.804,1.293-1.15,1.765s-0.741,0.884-1.185,1.236
			c-0.443,0.352-0.847,0.528-1.21,0.528c-0.637,0-0.955-0.443-0.955-1.33c0-1.375,0.472-2.897,1.415-4.568
			C403.189,141.193,403.633,140.853,404.121,140.853z M406.439,138.603h-0.067c-0.228,0-0.446,0.097-0.656,0.289
			c-0.211,0.193-0.361,0.393-0.452,0.597c-0.296-0.113-0.443-0.317-0.443-0.613s0.137-0.594,0.409-0.895
			c0.272-0.302,0.534-0.452,0.784-0.452s0.438,0.057,0.562,0.171c0.125,0.113,0.188,0.258,0.188,0.435
			C406.764,138.31,406.655,138.466,406.439,138.603z"/>
		<path style="fill:#01388C;" d="M413.31,144.244c-0.421,0.705-0.804,1.293-1.15,1.765s-0.741,0.884-1.185,1.236
			c-0.443,0.352-0.847,0.528-1.211,0.528c-0.67,0-1.005-0.369-1.005-1.108c0-0.738,0.426-2.222,1.278-4.449
			c0.045-0.102,0.068-0.21,0.068-0.323c0-0.239-0.151-0.358-0.452-0.358c-0.302,0-0.597,0.094-0.887,0.281
			c-0.289,0.188-0.554,0.455-0.792,0.801c-0.239,0.348-0.455,0.699-0.648,1.058c-0.193,0.357-0.372,0.77-0.537,1.235
			c-0.164,0.467-0.295,0.855-0.392,1.168s-0.193,0.647-0.29,1.006c-0.097,0.357-0.15,0.554-0.162,0.588h-1.653
			c0-0.238,0.5-1.608,1.5-4.108c0.409-1.17,0.614-1.988,0.614-2.454c0-0.114-0.018-0.199-0.052-0.256h0.716
			c0.398,0,0.653,0.04,0.768,0.119c0.113,0.08,0.17,0.188,0.17,0.324c0,0.136-0.062,0.415-0.188,0.835
			c0.955-0.909,1.915-1.363,2.881-1.363c0.648,0,0.972,0.295,0.972,0.886c0,0.193-0.028,0.387-0.085,0.58s-0.199,0.579-0.426,1.159
			c-0.5,1.272-0.75,2.125-0.75,2.557c0,0.272,0.102,0.409,0.307,0.409c0.147,0,0.354-0.103,0.622-0.307
			c0.267-0.205,0.488-0.418,0.665-0.64c0.176-0.222,0.369-0.5,0.579-0.835s0.39-0.628,0.537-0.878s0.233-0.375,0.256-0.375
			c0.068,0,0.103,0.105,0.103,0.315S413.423,144.052,413.31,144.244z"/>
		<path style="fill:#01388C;" d="M419.514,143.239c0.068,0,0.103,0.11,0.103,0.332s-0.091,0.485-0.272,0.793
			c-0.182,0.307-0.361,0.597-0.537,0.869c-0.177,0.272-0.412,0.591-0.707,0.954c-0.296,0.364-0.586,0.654-0.87,0.87
			c-0.716,0.522-1.435,0.784-2.156,0.784s-1.304-0.185-1.747-0.555c-0.443-0.369-0.665-0.935-0.665-1.696
			c0-1.159,0.427-2.232,1.278-3.222c0.853-0.988,1.847-1.482,2.983-1.482c0.512,0,0.921,0.134,1.228,0.4s0.46,0.588,0.46,0.963
			c0,0.637-0.301,1.148-0.903,1.534c-0.603,0.387-1.312,0.58-2.131,0.58c-0.478,0-0.829-0.062-1.057-0.188
			c-0.216,0.579-0.324,1.091-0.324,1.534c0,0.954,0.403,1.432,1.211,1.432c0.477,0,0.969-0.185,1.474-0.554
			c0.506-0.369,0.938-0.784,1.296-1.245c0.358-0.46,0.765-1.122,1.219-1.985C419.44,143.278,419.479,143.239,419.514,143.239z
			 M417.707,141.893c0-0.33-0.159-0.495-0.478-0.495c-0.443,0-0.938,0.273-1.482,0.818c-0.546,0.546-0.818,0.989-0.818,1.33
			c0,0.228,0.216,0.341,0.647,0.341s0.884-0.21,1.355-0.631C417.403,142.836,417.661,142.381,417.707,141.893z"/>
	</g>
	<g>
		<g>
			<path style="fill:#01388C;" d="M258.992,154.079c48.916-0.651,103.798-0.656,152.714,0
				C362.79,154.735,307.908,154.729,258.992,154.079L258.992,154.079z"/>
		</g>
	</g>
</g>
<g>
	<path style="fill:#01388C;" d="M581.027,81.44c15.213,26.912,30.425,53.824,45.638,80.737c0.525,0.929,1.52,1.494,2.587,1.469
		c7.686-0.182,15.372-0.364,23.058-0.546c1.014-0.024,1.941-0.577,2.444-1.458l79.742-139.645
		c-23.266,15.842-46.532,31.684-69.798,47.525c5.579-0.021,11.157-0.042,16.736-0.063c0.81-0.003,1.32,0.87,0.919,1.574
		c-13.9,24.421-27.8,48.843-41.7,73.264c-12.023-20.952-24.045-41.904-36.068-62.857H581.027z"/>
	<path style="fill:#F9E00F;" d="M662.84,163.124c27.427-48.044,54.854-93.237,82.281-141.28c6.671,16.03,13.343,32.06,20.014,48.09
		c-7.061,0.011-14.122,0.021-21.183,0.032c-1.255,0.002-2.413,0.674-3.036,1.763c-17.613,30.756-35.226,58.661-52.838,89.416
		c-0.652,1.139-1.862,1.845-3.175,1.853L662.84,163.124z"/>
	<path style="fill:#F9E00F;" d="M618.018,81.521c7.295-0.127,14.591-0.255,21.886-0.382c0.397-0.007,0.767,0.203,0.963,0.548
		c3.901,6.834,7.801,13.669,11.702,20.503c0.194,0.34,0.19,0.758-0.009,1.094l-11.057,18.625c-0.426,0.718-1.468,0.708-1.88-0.018
		c-7.428-13.061-14.855-26.121-22.283-39.182C617.041,82.185,617.414,81.532,618.018,81.521z"/>
</g>
<path style="fill:#F9E00F;" d="M793.991,91.706c-0.035,0.301-0.15,0.592-0.344,0.875c-0.867,1.184-1.998,3.04-3.394,5.567
	l-7.875,14.37c-2.104,3.836-3.742,6.864-4.918,9.081c-1.176,2.219-2.09,4.009-2.744,5.37c-0.495,1.078-1.242,1.905-2.241,2.478
	c-0.999,0.574-2.073,0.863-3.221,0.863c-0.106,0-0.238,0-0.397,0h-1.007c-0.178,0-0.31,0-0.398,0c-1.149,0-2.099-0.288-2.85-0.863
	c-0.751-0.573-1.154-1.4-1.207-2.478c-0.053-1.361-0.199-3.15-0.437-5.37c-0.239-2.217-0.597-5.245-1.074-9.081l-1.777-14.37
	c-0.301-2.527-0.636-4.383-1.007-5.567c-0.071-0.283-0.071-0.566,0-0.849c0.106-0.583,0.415-1.096,0.928-1.538
	c0.512-0.441,1.453-0.675,2.824-0.702c1.369-0.026,2.311,0.102,2.824,0.385c0.265,0.142,0.504,0.327,0.716,0.557
	c0.637,0.653,0.946,1.475,0.928,2.466c-0.035,1.414,0.212,4.021,0.742,7.821l2.493,19.223l10.658-19.223
	c2.157-3.8,3.518-6.407,4.084-7.821c0.406-0.99,1.06-1.812,1.961-2.466c0.301-0.23,0.627-0.415,0.981-0.557
	c0.619-0.283,1.604-0.411,2.957-0.385c1.352,0.027,2.191,0.261,2.518,0.702c0.118,0.159,0.17,0.534,0.179,0.575
	C793.979,91.151,793.994,91.478,793.991,91.706z"/>
<path style="fill:#F9E00F;" d="M830.454,103.398c0,1.555-0.178,3.292-0.531,5.21c-0.354,1.918-0.902,3.88-1.644,5.886
	c-0.743,2.006-1.706,3.951-2.89,5.833c-1.184,1.883-2.603,3.571-4.255,5.065c-1.653,1.493-3.566,2.686-5.74,3.579
	c-2.174,0.892-4.631,1.339-7.37,1.339c-1.238,0-2.559-0.143-3.964-0.424c-1.406-0.283-2.776-0.765-4.11-1.445
	c-1.335-0.68-2.532-1.604-3.593-2.771c-1.237-1.432-2.108-3.053-2.611-4.865c-0.504-1.811-0.755-3.636-0.755-5.475
	c0-1.061,0.123-2.479,0.37-4.255c0.248-1.777,0.734-3.712,1.459-5.807c0.724-2.095,1.78-4.176,3.168-6.245
	c1.388-2.067,3.203-3.941,5.449-5.62c0.777-0.566,1.758-1.149,2.943-1.75c1.184-0.6,2.567-1.113,4.149-1.538
	c1.581-0.424,3.345-0.637,5.29-0.637c4.755,0,8.382,1.238,10.884,3.712C829.202,95.665,830.454,99.068,830.454,103.398z
	 M820.432,95.841c-0.672-0.547-1.476-0.958-2.413-1.233c-0.937-0.274-1.945-0.411-3.022-0.411c-2.104,0-3.96,0.456-5.568,1.366
	c-1.608,0.91-2.991,2.12-4.149,3.632s-2.104,3.186-2.837,5.024c-0.734,1.838-1.272,3.716-1.617,5.634
	c-0.344,1.919-0.517,3.708-0.517,5.37c0,0.795,0.097,1.882,0.291,3.261c0.195,1.379,0.574,2.598,1.14,3.659
	c0.813,1.308,1.852,2.236,3.115,2.784c1.264,0.547,2.515,0.822,3.752,0.822c2.121,0,3.986-0.495,5.594-1.486
	c1.609-0.989,2.974-2.288,4.096-3.897c1.123-1.607,2.037-3.375,2.745-5.302c0.706-1.927,1.219-3.858,1.538-5.793
	c0.318-1.936,0.478-3.69,0.478-5.264c0-0.83-0.058-1.754-0.173-2.771s-0.362-1.997-0.743-2.942
	C821.761,97.349,821.191,96.531,820.432,95.841z"/>
<path style="fill:#F9E00F;" d="M854.403,116.071l0.556,0.424c0,0.919-0.106,1.776-0.318,2.572c-0.212,1.343-0.705,2.674-1.484,3.99
	c-0.778,1.317-1.844,2.523-3.194,3.619c-1.353,1.097-3.001,1.976-4.946,2.639c-1.945,0.663-4.171,0.995-6.682,0.995
	c-0.283,0-0.557-0.009-0.822-0.027c-0.301,0.018-0.61,0.027-0.928,0.027c-1.696,0-3.349-0.204-4.958-0.61
	c-0.937-0.283-1.569-0.831-1.896-1.644c-0.328-0.814-0.358-1.662-0.093-2.546c0.335-0.866,0.905-1.422,1.71-1.67
	c0.803-0.248,1.501-0.287,2.094-0.12c0.592,0.169,1.074,0.358,1.445,0.57c0.282,0.159,0.592,0.301,0.927,0.424
	c1.15,0.248,2.218,0.37,3.209,0.37c2.386,0,4.415-0.565,6.085-1.696c1.671-1.132,2.62-2.696,2.851-4.693
	c-0.106-1.361-0.62-2.452-1.538-3.274c-0.92-0.822-1.919-1.498-2.997-2.029l-3.182-1.856c-1.679-0.883-3.142-1.926-4.387-3.129
	c-1.246-1.202-1.905-2.916-1.976-5.143c0-0.902,0.106-1.75,0.318-2.546c0.23-1.326,0.729-2.651,1.498-3.977s1.833-2.537,3.195-3.632
	c1.361-1.097,3.009-1.976,4.944-2.639s4.158-0.995,6.669-0.995c0.283,0,0.556,0.009,0.822,0.027c0.3-0.018,0.618-0.027,0.953-0.027
	c1.679,0,3.331,0.212,4.959,0.637c0.936,0.265,1.565,0.804,1.883,1.617c0.318,0.814,0.343,1.671,0.079,2.572
	c-0.318,0.849-0.884,1.401-1.696,1.657c-0.814,0.256-1.513,0.301-2.095,0.132c-0.583-0.168-1.07-0.366-1.459-0.596
	c-0.283-0.159-0.593-0.301-0.928-0.424c-1.132-0.229-2.199-0.344-3.209-0.344c-2.368,0-4.386,0.562-6.057,1.683
	c-1.671,1.123-2.63,2.682-2.877,4.68c0.123,1.361,0.645,2.452,1.564,3.274s1.91,1.508,2.969,2.055l3.209,1.83
	c1.661,0.883,3.119,1.926,4.374,3.129C854.251,112.581,854.721,114.146,854.403,116.071z"/>
<path style="fill:#F9E00F;" d="M895.849,103.398c0,1.555-0.177,3.292-0.53,5.21c-0.354,1.918-0.902,3.88-1.644,5.886
	c-0.743,2.006-1.706,3.951-2.89,5.833c-1.184,1.883-2.603,3.571-4.255,5.065c-1.653,1.493-3.567,2.686-5.74,3.579
	c-2.174,0.892-4.631,1.339-7.371,1.339c-1.237,0-2.558-0.143-3.963-0.424c-1.406-0.283-2.776-0.765-4.11-1.445
	c-1.335-0.68-2.532-1.604-3.593-2.771c-1.238-1.432-2.108-3.053-2.611-4.865c-0.505-1.811-0.756-3.636-0.756-5.475
	c0-1.061,0.124-2.479,0.371-4.255c0.248-1.777,0.734-3.712,1.459-5.807c0.724-2.095,1.78-4.176,3.168-6.245
	c1.387-2.067,3.203-3.941,5.449-5.62c0.777-0.566,1.758-1.149,2.942-1.75c1.184-0.6,2.568-1.113,4.15-1.538
	c1.581-0.424,3.344-0.637,5.289-0.637c4.755,0,8.383,1.238,10.884,3.712C894.599,95.665,895.849,99.068,895.849,103.398z
	 M885.828,95.841c-0.672-0.547-1.476-0.958-2.413-1.233c-0.937-0.274-1.945-0.411-3.023-0.411c-2.103,0-3.959,0.456-5.567,1.366
	c-1.609,0.91-2.992,2.12-4.149,3.632c-1.158,1.512-2.104,3.186-2.837,5.024c-0.734,1.838-1.272,3.716-1.617,5.634
	c-0.345,1.919-0.517,3.708-0.517,5.37c0,0.795,0.097,1.882,0.291,3.261c0.195,1.379,0.574,2.598,1.14,3.659
	c0.813,1.308,1.851,2.236,3.115,2.784c1.264,0.547,2.515,0.822,3.752,0.822c2.121,0,3.986-0.495,5.594-1.486
	c1.608-0.989,2.974-2.288,4.096-3.897c1.123-1.607,2.037-3.375,2.745-5.302c0.706-1.927,1.219-3.858,1.538-5.793
	c0.318-1.936,0.477-3.69,0.477-5.264c0-0.83-0.057-1.754-0.172-2.771s-0.363-1.997-0.743-2.942
	C887.158,97.349,886.588,96.531,885.828,95.841z"/>
<text transform="matrix(1 0 0 1 910.8594 127.9713)" style="fill:#01388C; font-family:'Playball-Regular'; font-size:53.2701px;">Vyapar</text>
<g>
	<text transform="matrix(1 0 0 1 832.2109 156.7154)" style="fill:#01388C; font-family:'Playball-Regular'; font-size:17.0464px;">Ab Bharat Hoga Online</text>
	<g>
		<path style="fill:#01388C;" d="M828.751,163.124c48.916-0.651,103.798-0.656,152.714,0
			C932.549,163.78,877.667,163.774,828.751,163.124L828.751,163.124z"/>
	</g>
</g>
</svg>
